<?xml version="1.0" encoding="utf-8"?>
<!-- Generator: Adobe Illustrator 16.0.0, SVG Export Plug-In . SVG Version: 6.00 Build 0)  -->
<!DOCTYPE svg PUBLIC "-//W3C//DTD SVG 1.1//EN" "http://www.w3.org/Graphics/SVG/1.1/DTD/svg11.dtd">
<svg version="1.1" id="Capa_1" xmlns="http://www.w3.org/2000/svg" xmlns:xlink="http://www.w3.org/1999/xlink" x="0px" y="0px"
	 width="2696.042px" height="2945.411px" viewBox="0 0 2696.042 2945.411" enable-background="new 0 0 2696.042 2945.411"
	 xml:space="preserve">
<path fill="#FFFFFF" d="M2223.904,693.614c-8.98,1.748-17.373,4.799-25.037,8.906c-0.201-1.295-0.41-2.597-0.662-3.892
	c-9.784-50.141-58.362-82.856-108.511-73.072c-29.13,5.685-52.351,24.479-64.806,49.047c-16.809-10.469-37.455-14.859-58.422-10.766
	c-32.091,6.265-56.02,30.639-63.303,60.445c-9.309-1.667-19.056-1.696-28.885,0.224c-37.119,7.247-62.982,39.531-63.496,75.899
	h517.033c2.611-11.652,2.932-24.01,0.499-36.48C2318.896,715.675,2272.148,684.194,2223.904,693.614z"/>
<path fill="#FFFFFF" d="M611.048,800.124c-4.025,0.789-7.842,2.031-11.421,3.653c-0.179-2.254-0.469-4.516-0.915-6.778
	c-6.25-32.031-37.276-52.931-69.308-46.681c-17.634,3.445-31.875,14.397-40.089,28.884c-12.009-12.217-29.709-18.363-47.782-14.836
	c-21.942,4.286-38.028,21.592-41.815,42.329c-6.837-1.183-13.995-1.176-21.205,0.23c-23.526,4.591-40.981,22.686-45.899,44.672
	h339.967c0.052-3.52-0.253-7.091-0.953-10.677C666.16,812.921,639.039,794.662,611.048,800.124z M493.602,848.196
	c0.55-0.714,1.086-1.451,1.592-2.195c1.101,1.332,2.27,2.604,3.475,3.824C497.009,849.208,495.313,848.672,493.602,848.196z"/>
<path fill="#FFFFFF" d="M945.583,536.6c-3.14,0.617-6.123,1.584-8.914,2.85c-0.141-1.756-0.372-3.52-0.714-5.29
	c-4.881-25.007-29.106-41.324-54.114-36.443c-13.765,2.686-24.88,11.235-31.294,22.544c-9.375-9.531-23.192-14.33-37.306-11.577
	c-17.128,3.34-29.688,16.853-32.642,33.042c-5.342-0.922-10.923-0.915-16.555,0.179c-18.371,3.586-31.994,17.716-35.841,34.873
	h265.414c0.037-2.738-0.193-5.528-0.744-8.326C988.611,546.592,967.436,532.336,945.583,536.6z M853.895,574.129
	c0.425-0.558,0.849-1.131,1.243-1.711c0.855,1.034,1.771,2.031,2.708,2.983C856.559,574.917,855.227,574.501,853.895,574.129z"/>
</svg>
