<?xml version="1.0" encoding="utf-8"?>
<!-- Generator: Adobe Illustrator 16.0.0, SVG Export Plug-In . SVG Version: 6.00 Build 0)  -->
<!DOCTYPE svg PUBLIC "-//W3C//DTD SVG 1.1//EN" "http://www.w3.org/Graphics/SVG/1.1/DTD/svg11.dtd">
<svg version="1.1" id="Capa_1" xmlns="http://www.w3.org/2000/svg" xmlns:xlink="http://www.w3.org/1999/xlink" x="0px" y="0px"
	 width="596.969px" height="1070.947px" viewBox="0 0 596.969 1070.947" enable-background="new 0 0 596.969 1070.947"
	 xml:space="preserve">
<g>
	<g>
		<g>
			<g>
				<g>
					<path fill="#FFFFFF" d="M282.091,1000.805c-14.293,6.198-20.06,27.485-15.089,38.943c4.985,11.436,51.028,43.779,51.028,43.779
						c-0.113-23.289,7.715-55.915,2.811-67.181C315.954,1005.091,296.392,994.6,282.091,1000.805z"/>
				</g>
			</g>
		</g>
	</g>
	<g>
		<path fill="#DC394A" d="M161.694,710.421c0,0-72.172,41.316-107.831,114.426c-45.26,92.768-57.216,234.863-39.612,243.896
			c17.604,9.047,38.892-59.293,74.396-99.359c58.72-66.278,109.374-62.312,109.374-62.312L161.694,710.421z"/>
		<path fill="#BC2037" d="M434.397,710.421c0,0,72.156,41.316,107.824,114.426c45.262,92.768,57.213,234.863,39.613,243.896
			c-17.611,9.047-38.891-59.293-74.395-99.359c-58.729-66.278-109.375-62.312-109.375-62.312L434.397,710.421z"/>
		<path fill="#2B2B38" d="M403.883,1022.315c8.08-25.054,62.41-201.658,62.41-421.046c0-181.396-104.77-284.334-168.203-335.196
			c-63.433,50.862-168.201,153.8-168.201,335.196c0,219.389,54.33,395.993,62.418,421.046H403.883L403.883,1022.315z"/>
		<path fill="#FFFFFF" d="M85.144,501.77c0,277.743,68.786,442.651,79.024,474.386h267.846
			c10.246-31.733,79.029-196.643,79.029-474.386c0-122.409-37.689-237.684-85.049-328.418H170.188
			C122.83,264.086,85.144,379.36,85.144,501.77z"/>
		<path fill="#DC394A" d="M298.091,3.122c-37.503,30.074-86.416,90.728-127.904,170.229h255.808
			C384.508,93.85,335.594,33.195,298.091,3.122z"/>
		<path fill="#F0F1F1" d="M425.997,173.351H298.091v802.804h133.923c10.246-31.733,79.029-196.643,79.029-474.386
			C511.043,379.36,473.354,264.086,425.997,173.351z"/>
		<g>
			<path fill="#A5DCF0" d="M298.077,293.58c-50.658,0-91.736,41.078-91.736,91.74c0,50.654,41.078,91.733,91.736,91.733
				c50.666,0,91.744-41.079,91.744-91.733C389.821,334.658,348.743,293.58,298.077,293.58z"/>
			<g>
				<path fill="#2B2B38" d="M392.731,439.464c29.611-52.262,11.268-118.645-40.996-148.272
					c-52.271-29.62-118.653-11.272-148.274,40.997c-29.627,52.276-11.264,118.637,40.997,148.28
					C296.726,510.081,363.102,491.732,392.731,439.464z M371.815,427.611c-23.072,40.714-74.783,55.037-115.512,31.948
					c-40.721-23.072-55.022-74.812-31.934-115.52c23.072-40.729,74.792-55.022,115.512-31.942
					C380.602,335.172,394.903,386.897,371.815,427.611z"/>
				<path opacity="0.3" fill="#E6E6E7" enable-background="new    " d="M378.661,431.495c25.223-44.509,9.59-101.011-34.902-126.241
					c-44.494-25.223-101.02-9.591-126.238,34.903c-25.211,44.501-9.586,101.011,34.907,126.233
					C296.923,491.606,353.438,475.996,378.661,431.495z"/>
				<path opacity="0.5" fill="#FFFFFF" enable-background="new    " d="M226.697,411.54c-10.133-30.409,0.016-65.148,27.37-84.947
					c27.347-19.792,63.508-18.586,89.244,0.565c0,0-43.824,17.723-66.808,34.36C252.806,378.668,226.697,411.54,226.697,411.54z"/>
			</g>
		</g>
		<path fill="#DC394A" d="M298.679,743.181h-0.07h-0.066c-18.066,0-30.111,27.998-30.111,65.543
			c0,37.552,4.01,260.839,30.111,260.839c0.021,0,0.044,0,0.066,0s0.045,0,0.07,0c26.083,0,30.101-223.287,30.101-260.839
			C328.78,771.179,316.743,743.181,298.679,743.181z"/>
		<path fill="#BC2037" d="M298.077,173.351h127.919C384.508,93.85,335.594,33.195,298.091,3.122
			c-0.003,0.007-0.011,0.007-0.015,0.015L298.077,173.351L298.077,173.351z"/>
		<path fill="#BC2037" d="M298.679,743.181h-0.07v326.382c0.022,0,0.045,0,0.07,0c26.083,0,30.101-223.287,30.101-260.839
			C328.78,771.179,316.743,743.181,298.679,743.181z"/>
	</g>
</g>
</svg>
